<?xml version="1.0" standalone="no"?><!DOCTYPE svg PUBLIC "-//W3C//DTD SVG 1.1//EN" "http://www.w3.org/Graphics/SVG/1.1/DTD/svg11.dtd"><svg t="1705736294205" class="icon" viewBox="0 0 1024 1024" version="1.1" xmlns="http://www.w3.org/2000/svg" p-id="5366" xmlns:xlink="http://www.w3.org/1999/xlink" width="200" height="200"><path d="M640 85.333333H213.333333a85.333333 85.333333 0 0 0-85.333333 85.333334v682.666666a85.333333 85.333333 0 0 0 85.333333 85.333334h597.333334a85.333333 85.333333 0 0 0 85.333333-85.333334V341.333333z m-4.266667 104.533334l155.733334 155.733333H682.666667A46.933333 46.933333 0 0 1 635.733333 298.666667zM819.2 853.333333a8.533333 8.533333 0 0 1-8.533333 8.533334H213.333333a8.533333 8.533333 0 0 1-8.533333-8.533334V170.666667a8.533333 8.533333 0 0 1 8.533333-8.533334h345.6V298.666667A123.733333 123.733333 0 0 0 682.666667 422.4h136.533333z" fill="#231815" p-id="5367"></path><path d="M682.666667 682.666667H341.333333a38.4 38.4 0 0 0 0 76.8h341.333334a38.4 38.4 0 0 0 0-76.8zM341.333333 588.8h213.333334a38.4 38.4 0 0 0 0-76.8H341.333333a38.4 38.4 0 0 0 0 76.8zM341.333333 418.133333h128A38.4 38.4 0 0 0 469.333333 341.333333H341.333333a38.4 38.4 0 0 0 0 76.8z" fill="#231815" p-id="5368"></path></svg>